<svg width="42" height="42" viewBox="0 0 42 42" fill="none" xmlns="http://www.w3.org/2000/svg">
<line x1="12.3254" y1="13.6204" x2="29.3631" y2="28.2241" stroke="#0069FF"/>
<path d="M31.8666 20.6056C31.679 20.3578 27.2089 15 21.4999 15C15.7909 15 11.3207 20.3578 11.1333 20.6054C10.9556 20.8405 10.9556 21.1593 11.1333 21.3944C11.3207 21.6422 15.7909 27 21.4999 27C27.2089 27 31.679 21.6421 31.8666 21.3946C32.0445 21.1595 32.0445 20.8405 31.8666 20.6056ZM21.4999 26.1247C17.2946 26.1247 13.6524 22.2622 12.5742 20.9995C13.651 19.7357 17.2856 16.3846 21.4999 16.3846C25.705 16.3846 29.347 19.7371 30.4256 21.0005C29.3488 22.2642 25.7142 26.1247 21.4999 26.1247Z" fill="#0069FF"/>
<path d="M21.5 16C18.4674 16 16 18.2431 16 21C16 23.7569 18.4674 26 21.5 26C24.5326 26 27 23.7569 27 21C27 18.2431 24.5326 16 21.5 16ZM21.5 24.3333C19.4781 24.3333 17.8334 22.838 17.8334 21C17.8334 19.162 19.4782 17.6667 21.5 17.6667C23.5218 17.6667 25.1666 19.162 25.1666 21C25.1666 22.838 23.5219 24.3333 21.5 24.3333Z" fill="#0069FF"/>
</svg>
