<svg width="42" height="42" viewBox="0 0 42 42" fill="none" xmlns="http://www.w3.org/2000/svg">
<path d="M31.8666 19.6056C31.679 19.3578 27.2089 14 21.4999 14C15.7909 14 11.3207 19.3578 11.1333 19.6054C10.9556 19.8405 10.9556 20.1593 11.1333 20.3944C11.3207 20.6422 15.7909 26 21.4999 26C27.2089 26 31.679 20.6421 31.8666 20.3946C32.0445 20.1595 32.0445 19.8405 31.8666 19.6056ZM21.4999 25.1247C17.2946 25.1247 13.6524 21.2622 12.5742 19.9995C13.651 18.7357 17.2856 15.3846 21.4999 15.3846C25.705 15.3846 29.347 18.7371 30.4256 20.0005C29.3488 21.2642 25.7142 25.1247 21.4999 25.1247Z" fill="#0069FF"/>
<path d="M21.5 15C18.4674 15 16 17.2431 16 20C16 22.7569 18.4674 25 21.5 25C24.5326 25 27 22.7569 27 20C27 17.2431 24.5326 15 21.5 15ZM21.5 23.3333C19.4781 23.3333 17.8334 21.838 17.8334 20C17.8334 18.162 19.4782 16.6667 21.5 16.6667C23.5218 16.6667 25.1666 18.162 25.1666 20C25.1666 21.838 23.5219 23.3333 21.5 23.3333Z" fill="#0069FF"/>
</svg>
